<svg width="35" height="41" viewBox="0 0 35 41" fill="none" xmlns="http://www.w3.org/2000/svg">
<path fill-rule="evenodd" clip-rule="evenodd" d="M35 0H4.05145C2.8135 0.11254 0.270096 1.19293 0 4.61415V36.6881C0.0375134 38.0761 0.877813 40.8746 3.93891 40.9646H34.8875L13.8424 20.1447L35 0ZM2.70097 2.02572C2.70097 1.27987 3.3056 0.675239 4.05145 0.675239H9.90354C10.6494 0.675239 11.254 1.27987 11.254 2.02572C11.254 2.77157 10.6494 3.3762 9.90354 3.3762H4.05145C3.3056 3.3762 2.70097 2.77157 2.70097 2.02572ZM14.4051 2.02572C14.4051 2.77157 13.8005 3.3762 13.0547 3.3762C12.3088 3.3762 11.7042 2.77157 11.7042 2.02572C11.7042 1.27987 12.3088 0.675239 13.0547 0.675239C13.8005 0.675239 14.4051 1.27987 14.4051 2.02572Z" fill="white"/>
<path d="M1.45559 35.9274C1.99677 31.7375 9.8764 23.5768 13.8612 20.0321L34.8875 40.9646H4.50062C2.69616 40.9646 0.891702 40.2929 1.45559 35.9274Z" fill="white"/>
<path d="M1.35047 38.4887C0.450148 32.9967 9.30331 23.971 13.8424 20.1447L17.2186 23.5209C4.254 31.4437 1.20041 36.8381 1.35047 38.4887Z" fill="#E2E3E4"/>
<path d="M13.7299 20.2572L31.5113 0H35L13.7299 20.2572Z" fill="#E2E3E4"/>
</svg>
