<svg width="121" height="150" viewBox="0 0 121 150" fill="none" xmlns="http://www.w3.org/2000/svg">
<path d="M49.491 30.2169L34.3705 62.7147C33.5038 64.5831 31.2365 65.3389 29.4079 64.3732L25.4388 62.2791L16.2323 57.4244C14.5147 56.5164 13.8329 54.4223 14.6891 52.6904L15.8729 50.2919C23.6736 53.7138 24.2444 43.3378 20.3018 41.3014L23.9537 33.8855C23.959 33.8855 23.959 33.8855 23.959 33.8855L30.1584 21.3157C31.0198 19.5733 33.118 18.828 34.8938 19.6362L47.7205 25.4672C49.5333 26.2859 50.326 28.4167 49.491 30.2169Z" fill="#9B9FBA"/>
<path d="M31.0991 65.8111C30.3539 65.8111 29.614 65.6274 28.9322 65.2705L15.7619 58.3217C13.5475 57.1513 12.6755 54.4852 13.78 52.2494L14.9639 49.8509C15.207 49.3628 15.7884 49.1476 16.2904 49.368C17.9658 50.1028 20.1855 50.5332 21.2214 48.3918C22.2308 46.303 21.5068 43.0648 19.842 42.204C19.3505 41.9521 19.1549 41.3538 19.398 40.8604L23.05 33.4445C23.0606 33.4235 23.0711 33.4025 23.0817 33.3815L29.244 20.8747C30.3539 18.6232 33.0228 17.6732 35.3218 18.7176L48.1486 24.5486C49.2743 25.0577 50.1305 25.9709 50.5586 27.1203C50.9919 28.2749 50.9391 29.524 50.4212 30.6419L35.3007 63.1397C34.7616 64.2996 33.7945 65.1603 32.5789 65.5644C32.0874 65.7271 31.5906 65.8111 31.0991 65.8111ZM16.3803 51.5723L15.6087 53.1363C14.9903 54.3855 15.4765 55.876 16.7132 56.532L29.8888 63.4861C30.523 63.822 31.2471 63.8797 31.9236 63.654C32.6053 63.4284 33.1444 62.9455 33.4456 62.3L48.5661 29.8022C48.8568 29.1776 48.8832 28.4743 48.6454 27.834C48.4076 27.1937 47.9266 26.6794 47.2977 26.396L34.4709 20.5546C33.1867 19.972 31.6963 20.5021 31.0727 21.7617L24.8786 34.3315C24.868 34.3525 24.8575 34.3735 24.8469 34.3945L21.6125 40.9602C23.8163 42.8286 24.2655 46.7648 23.0606 49.2631C22.5955 50.2235 20.7986 53.0629 16.3803 51.5723Z" fill="#133B65"/>
<path d="M8.1145 70.5714C8.1145 70.5714 8.01937 76.712 11.1745 79.987C14.3297 83.2672 20.1802 75.6938 20.1802 75.6938L17.9235 69.6162" fill="#9B9FBA"/>
<path d="M40.2105 26.2281L36.4687 24.6693C35.5702 24.2967 34.5344 24.6851 34.1063 25.5563L20.5291 53.3673C20.0957 54.2595 20.4181 55.3302 21.2795 55.834L30.2641 61.1086C30.9776 61.5285 31.8866 61.434 32.4996 60.8724L32.7797 60.6153" fill="#3FB1EA"/>
<path d="M13.0666 81.8239C12.0572 81.8239 11.1534 81.4356 10.4347 80.685C7.0311 77.1476 7.08923 70.8181 7.09452 70.5505C7.10509 69.9994 7.5596 69.5533 8.11453 69.5533C8.11981 69.5533 8.1251 69.5533 8.13038 69.5533C8.6906 69.5638 9.13982 70.0204 9.13454 70.582C9.13454 70.6659 9.09226 76.3551 11.9092 79.2837C12.2686 79.6564 12.6702 79.8191 13.1723 79.7928C15.1383 79.6879 17.7967 76.9745 19.0228 75.5049L16.967 69.9679C16.7714 69.4431 17.0409 68.8605 17.5694 68.6663C18.0979 68.4721 18.6846 68.7398 18.8801 69.2646L21.1368 75.3422C21.2584 75.6676 21.2003 76.035 20.9889 76.3079C20.5661 76.8537 16.782 81.6245 13.2833 81.8134C13.2093 81.8239 13.1406 81.8239 13.0666 81.8239Z" fill="#133B65"/>
<path d="M25.8828 67.7897L24.9103 69.6214L4.81136 71.8624C4.81136 71.8624 2.86647 68.2673 4.81136 60.9301C6.75625 53.5929 11.3172 46.282 15.8782 39.7373C20.3599 33.3081 23.8375 33.8644 23.9643 33.8854L20.3123 41.3013C24.255 43.3377 23.6789 53.7136 15.8835 50.2917L14.6996 52.6902C13.8435 54.4222 14.5252 56.5163 16.2429 57.4242L25.4494 62.279L25.8828 67.7897Z" fill="#0178BC"/>
<g opacity="0.6">
<path d="M23.959 33.8854L23.1557 35.5124C21.6917 36.0005 19.4139 37.3756 16.7978 41.1281C12.2368 47.6728 7.67585 54.9838 5.73096 62.321C4.49426 66.9868 4.8325 70.1358 5.23945 71.81L4.80608 71.8572C4.80608 71.8572 2.86119 68.2621 4.80608 60.9249C6.75097 53.5877 11.3119 46.2768 15.8729 39.7321C20.3599 33.3081 23.8375 33.8644 23.959 33.8854Z" fill="white"/>
</g>
<path d="M4.81137 72.8755C4.44141 72.8755 4.0926 72.6708 3.91291 72.3401C3.82835 72.1774 1.80418 68.3094 3.82307 60.673C5.86309 52.9737 10.6355 45.479 15.0379 39.16C19.8103 32.3109 23.7159 32.8095 24.144 32.8883C24.4558 32.946 24.7254 33.1454 24.8681 33.4288C25.0107 33.7122 25.0107 34.0429 24.8733 34.3315L21.6072 40.9602C23.811 42.8286 24.2603 46.7649 23.0553 49.2631C22.5902 50.2236 20.7933 53.0629 16.3803 51.5724L15.6087 53.1364C14.9903 54.3855 15.4766 55.876 16.7133 56.5321L25.9198 61.3868C26.2263 61.5495 26.4324 61.8539 26.4588 62.2003L26.8975 67.7111C26.9134 67.9 26.8711 68.0942 26.7812 68.2621L25.8088 70.0938C25.6502 70.393 25.3543 70.5924 25.0213 70.6292L4.92235 72.8702C4.88536 72.8755 4.84836 72.8755 4.81137 72.8755ZM22.1621 35.2395C20.8884 35.7748 18.9647 37.0974 16.7185 40.3147C12.4165 46.4867 7.75513 53.7924 5.79967 61.1874C4.44141 66.3203 5.0809 69.506 5.47728 70.7709L24.2603 68.6768L24.8416 67.5799L24.4717 62.9141L15.7619 58.3165C13.5475 57.1461 12.6755 54.48 13.7801 52.2442L14.9639 49.8457C15.207 49.3576 15.7884 49.1424 16.2904 49.3628C17.9658 50.0976 20.1855 50.528 21.2214 48.3866C22.2308 46.2978 21.5068 43.0596 19.842 42.1988C19.3505 41.9469 19.1549 41.3486 19.398 40.8553L22.1621 35.2395Z" fill="#133B65"/>
<path d="M81.1325 134.906C81.1325 134.906 81.0479 135.21 80.8947 135.73C80.2657 137.876 78.4635 143.644 76.6666 145.896C74.912 148.09 59.337 150.404 46.5631 147.89H46.5578C43.8149 147.349 41.1988 146.583 38.8734 145.549C37.6261 144.993 36.6484 143.975 36.1199 142.72C35.1897 140.506 33.8632 136.501 33.7363 131.426C33.5567 123.527 81.1325 134.906 81.1325 134.906Z" fill="#9B9FBA"/>
<path d="M37.2931 79.6721C37.2931 79.6721 29.503 89.0037 28.8477 88.9617C28.1923 88.925 4.81663 91.313 11.1481 80.3911C13.9809 75.5102 17.136 72.3507 19.7627 70.3458C23.013 67.8633 25.4441 67.1548 25.4441 67.1548L35.4434 70.8654L35.6178 71.7051L37.2931 79.6721Z" fill="white"/>
<path d="M35.6178 71.7156L32.7692 73.9829L20.1749 70.6869C20.1749 70.6869 20.0111 70.5662 19.7574 70.3615C23.0077 67.8791 25.4388 67.1705 25.4388 67.1705L35.4381 70.8811L35.6178 71.7156Z" fill="#EBEDFF"/>
<path d="M23.4517 90.174C15.9945 90.174 11.3807 88.8357 9.71588 86.1748C8.64831 84.4691 8.83328 82.354 10.2602 79.8925C16.7238 68.7503 24.8152 66.2888 25.1535 66.1891C25.3649 66.1261 25.5921 66.1366 25.7982 66.2101L35.7975 69.9206C36.326 70.1148 36.5903 70.6974 36.3947 71.2222C36.1992 71.7471 35.6072 72.0147 35.084 71.8153L25.4283 68.2307C23.959 68.7817 17.3739 71.6736 12.0254 80.8949C11.0001 82.6584 10.8046 84.0754 11.4494 85.0989C12.1629 86.2378 15.2229 88.799 28.2135 87.9802C28.3615 87.9697 28.4725 87.9645 28.5623 87.9592C29.5189 87.1772 33.2607 82.9156 36.5057 79.0213C36.8651 78.5909 37.5099 78.5332 37.9432 78.8901C38.3766 79.247 38.4347 79.8873 38.0753 80.3176C38.0542 80.3386 36.0987 82.6846 34.0852 84.9939C29.762 89.9484 29.3815 90.0061 28.8107 89.9746C28.7314 89.9746 28.5729 89.9851 28.3456 90.0008C26.5963 90.1163 24.9685 90.174 23.4517 90.174Z" fill="#133B65"/>
<g opacity="0.2">
<path d="M41.0085 135.73C41.0085 135.73 39.7243 141.461 43.6563 144.164C47.5884 146.861 49.7764 143.634 49.1898 140.836C48.6084 138.039 48.1698 136.543 48.1698 136.543" fill="white"/>
</g>
<path d="M58.7134 150C53.0637 150 44.9829 149.386 38.4665 146.478C36.9919 145.817 35.8292 144.626 35.1897 143.119C34.138 140.616 32.8538 136.564 32.7269 131.458C32.7058 130.56 33.0863 129.773 33.8315 129.175C34.8409 128.361 37.9221 125.894 60.2091 129.642C71.0381 131.463 81.2646 133.898 81.3703 133.924C81.6399 133.987 81.8671 134.155 82.0098 134.391C82.1525 134.628 82.1895 134.906 82.1155 135.173C82.0204 135.515 79.8007 143.602 77.4647 146.531C75.895 148.494 68.3163 149.675 61.932 149.937C60.9965 149.974 59.9078 150 58.7134 150ZM41.4525 129.642C37.4094 129.642 35.7711 130.224 35.1157 130.754C34.8039 131.006 34.7616 131.221 34.7669 131.41C34.8832 136.202 36.0829 139.997 37.0712 142.337C37.5046 143.371 38.2973 144.185 39.3015 144.631C52.625 150.577 74.3095 147.224 75.8686 145.266C77.3801 143.377 79.0608 138.359 79.8641 135.646C77.0049 134.984 68.6334 133.106 59.8655 131.631C50.9444 130.135 45.1784 129.642 41.4525 129.642Z" fill="#133B65"/>
<path d="M93.806 106.901C91.4594 116.374 86.6395 127.894 84.3933 133.027C83.6481 134.727 82.0573 135.908 80.2076 136.15C59.8496 138.826 42.8689 136.087 34.4075 133.237C31.4796 132.255 29.5717 131.253 28.8952 130.466C26.1734 127.285 27.1036 117.35 27.1036 117.35C27.1036 117.35 29.7673 107.226 29.91 94.42C30.0579 81.614 34.1855 68.8972 34.1855 68.8972C34.1855 68.8972 34.1855 68.8972 34.1908 68.892L41.8118 66.1418C41.8118 66.1418 62.0905 69.3171 77.9033 73.3636C86.4333 75.5469 93.6633 77.9874 95.7033 80.3176C97.3628 82.2123 98.1767 84.1594 98.4198 86.2693C99.0276 91.5754 96.0415 97.8891 93.806 106.901Z" fill="white"/>
<path d="M98.4145 86.2745L98.0498 86.4372C87.0517 88.9617 45.4955 80.3229 34.1855 68.8972C34.1855 68.8972 34.1855 68.8972 34.1908 68.892L41.8118 66.1418C41.8118 66.1418 89.8792 73.6627 95.7033 80.3177C97.3575 82.2228 98.1714 84.1647 98.4145 86.2745Z" fill="#EBEDFF"/>
<g opacity="0.3">
<path d="M93.806 106.901C91.4594 116.374 86.6395 127.894 84.3933 133.027C83.6481 134.727 82.0574 135.908 80.2076 136.15C59.8497 138.826 42.8689 136.087 34.4075 133.237C70.2612 124.383 74.4839 84.7262 74.4839 84.7262C79.7742 79.8715 68.1154 76.2711 68.1154 76.2711L77.898 73.3688C86.4281 75.5521 93.658 77.9926 95.698 80.3228C97.3575 82.2175 98.1714 84.1646 98.4145 86.2745C99.0276 91.5753 96.0415 97.8891 93.806 106.901Z" fill="#133B65"/>
</g>
<g opacity="0.2">
<path d="M51.2351 71.4689L47.6835 76.5178C47.6835 76.5178 60.3042 81.4827 60.3042 81.1941C60.3042 80.9054 60.3042 74.2033 60.3042 74.2033" fill="white"/>
</g>
<g opacity="0.6">
<path d="M97.3998 82.8316C97.2624 82.6532 97.1144 82.4747 96.9611 82.2963C91.137 75.6466 43.0697 68.1257 43.0697 68.1257L35.4487 70.8759C35.4434 70.8811 35.4434 70.8811 35.4434 70.8811C35.4434 70.8811 31.3158 83.5979 31.1678 96.4038C31.0251 109.21 28.3615 119.334 28.3615 119.334C28.3615 119.334 27.6691 126.729 29.2282 130.802C29.0961 130.691 28.9798 130.581 28.89 130.476C26.1682 127.296 27.0983 117.361 27.0983 117.361C27.0983 117.361 29.762 107.236 29.9047 94.4305C30.0527 81.6245 34.1803 68.9077 34.1803 68.9077C34.1803 68.9077 34.1803 68.9077 34.1856 68.9025L41.8066 66.1523C41.8066 66.1523 89.8739 73.6732 95.698 80.3281C96.4168 81.1521 96.9823 81.9814 97.3998 82.8316Z" fill="white"/>
</g>
<path d="M63.5915 138.265C56.0074 138.265 49.7077 137.572 45.0939 136.816C36.6695 135.436 29.8466 133.148 28.1184 131.127C25.2063 127.721 25.9885 118.326 26.0889 117.266C26.0942 117.214 26.1048 117.156 26.1153 117.103C26.1418 117.004 28.7526 106.937 28.89 94.4147C29.0327 81.6035 33.1708 68.724 33.2131 68.5928C33.3082 68.2936 33.5408 68.0575 33.8368 67.9525L41.4631 65.2024C41.6269 65.1446 41.8013 65.1289 41.9704 65.1551C42.092 65.1761 54.163 67.0708 66.7889 69.7579C84.1661 73.458 93.8747 76.6962 96.4749 79.6668C101.321 85.2038 99.5297 91.0872 97.0457 99.2379C96.3269 101.589 95.5183 104.261 94.7996 107.152C92.4002 116.841 87.3741 128.765 85.3288 133.441C84.4515 135.452 82.5383 136.874 80.3397 137.168C74.2619 137.955 68.6387 138.265 63.5915 138.265ZM28.1078 117.528C27.8647 120.237 27.685 127.5 29.6669 129.815C30.6657 130.985 36.2097 133.305 45.4215 134.816C52.9738 136.055 65.1136 137.115 80.0702 135.147C81.5606 134.953 82.8607 133.982 83.4526 132.623C85.4821 127.994 90.45 116.201 92.8124 106.659C93.5417 103.715 94.3609 101.022 95.085 98.6449C97.4632 90.8353 99.0329 85.6814 94.9264 80.9894C90.376 75.7935 55.368 69.3118 41.9017 67.1915L34.9995 69.6844C34.2701 72.0829 31.0463 83.2987 30.9194 94.4357C30.7926 106.601 28.3667 116.51 28.1078 117.528Z" fill="#133B65"/>
<path d="M85.7939 119.743C85.7939 119.743 81.4231 126.54 73.2683 127.626C65.1135 128.713 68.1683 118.153 68.1683 118.153C68.1683 118.153 70.7157 115.041 72.539 112.511C74.3571 109.981 72.8297 108.129 77.6391 109.666C82.4432 111.209 87.5432 115.833 85.7939 119.743Z" fill="#9B9FBA"/>
<path d="M72.1426 128.718C70.388 128.718 69.0139 128.156 68.052 127.044C65.4412 124.042 67.1166 118.122 67.1906 117.87C67.2276 117.738 67.291 117.618 67.3808 117.513C67.4073 117.481 69.9335 114.395 71.7093 111.923C72.1585 111.299 72.3699 110.716 72.5549 110.197C72.8297 109.435 73.1415 108.575 74.1457 108.228C74.9543 107.95 76.0218 108.087 77.9456 108.701C81.7561 109.924 85.3129 112.768 86.5919 115.623C87.3001 117.193 87.3424 118.762 86.7187 120.153C86.6976 120.2 86.6765 120.242 86.6448 120.284C86.4545 120.578 81.9199 127.49 73.3952 128.623C72.9671 128.686 72.5443 128.718 72.1426 128.718ZM69.0985 118.62C68.6862 120.184 68.0943 123.994 69.5953 125.721C70.314 126.545 71.4714 126.839 73.1309 126.619C80.2974 125.663 84.4409 119.916 84.8954 119.255C85.2495 118.41 85.1967 117.465 84.7369 116.447C83.6904 114.117 80.5723 111.671 77.322 110.627C75.2238 109.955 74.838 110.123 74.801 110.144C74.7164 110.212 74.5738 110.611 74.4733 110.879C74.2619 111.456 73.9765 112.243 73.3688 113.094C71.7938 115.293 69.6534 117.938 69.0985 118.62Z" fill="#133B65"/>
<path d="M114.634 37.5121L108.884 72.5186C108.884 72.5186 106.765 82.7896 89.2873 80.7638C74.0241 78.9951 55.5424 73.6942 45.7651 69.4903C45.7281 69.4746 45.7069 69.4693 45.6911 69.4588C45.6858 69.4588 45.6805 69.4536 45.6752 69.4536C44.2906 68.8552 43.0856 68.2832 42.092 67.7426C34.0852 63.4022 25.9304 57.3194 32.0504 43.2958C38.1705 29.2722 45.7439 14.6608 51.716 9.5961C57.6881 4.53144 68.7602 4.38974 68.7602 4.38974C68.7602 4.38974 72.1109 0.196306 79.7795 1.15675C86.3171 1.98075 99.276 7.70145 104.825 11.2283C104.825 11.2283 104.831 11.2283 104.831 11.2336C105.787 11.8424 106.527 12.3882 106.971 12.8291C108.985 14.8287 109.439 17.138 109.518 18.4448C109.561 19.0851 109.508 19.484 109.508 19.484C109.508 19.484 110.486 20.7331 111.59 22.9899C113.102 26.1022 114.862 31.1458 114.634 37.5121Z" fill="white"/>
<g opacity="0.6">
<path d="M108.868 15.6527C108.599 15.2748 108.282 14.8969 107.912 14.5296C104.899 11.5432 88.3941 3.82817 80.7203 2.86247C73.0517 1.89677 69.701 6.09545 69.701 6.09545L64.7489 11.9106C64.7489 11.9106 60.9807 16.8966 67.5923 21.4521C67.3597 21.3629 60.5526 18.597 62.2015 13.7738C63.137 11.0237 65.3831 8.20529 67.1695 6.25815C63.5439 6.62029 56.8478 7.74868 52.6568 11.3018C46.6847 16.3665 39.1112 30.9726 32.9912 45.0015C30.2482 51.2838 30.3751 55.9758 32.0663 59.6234C29.5453 55.7501 28.8583 50.6015 32.0452 43.2905C38.1652 29.2617 45.7387 14.6555 51.7107 9.59086C57.6828 4.5262 68.755 4.38449 68.755 4.38449C68.755 4.38449 72.1057 0.191057 79.7743 1.15151C87.4481 2.1172 103.953 9.83228 106.966 12.8238C107.891 13.7476 108.488 14.729 108.868 15.6527Z" fill="white"/>
</g>
<path d="M35.8874 34.8564C30.1901 45.9987 36.8545 52.4122 36.8545 52.4122C45.8866 63.5492 77.3484 72.083 87.2526 70.4927C97.1567 68.9025 96.2847 66.7297 101.438 47.2111C106.59 27.6924 93.621 24.0028 93.621 24.0028C81.587 28.4797 60.1615 23.0476 61.71 14.2724C50.511 10.4149 46.8485 15.2171 46.8485 15.2171L35.8874 34.8564Z" fill="#EBEDFF"/>
<g opacity="0.3">
<path d="M101.438 47.2058C96.2847 66.7297 97.1567 68.8972 87.2525 70.4875C77.3484 72.0777 45.8866 63.5439 36.8545 52.4069C36.8545 52.4069 36.4317 52.0028 35.8926 51.2155C45.7281 61.9642 75.932 70.0519 85.5983 68.4983C95.5025 66.9081 94.6304 64.7353 99.7833 45.2167C102.199 36.0688 100.634 30.3953 98.2877 26.9524C101.39 30.0279 104.392 36.0163 101.438 47.2058Z" fill="#133B65"/>
</g>
<path d="M93.6844 82.0391C92.2574 82.0391 90.7565 81.9499 89.171 81.7662C72.1955 79.7981 50.0618 73.2114 41.611 68.6296C37.6895 66.504 33.3505 63.7801 30.8983 59.6654C28.1395 55.0363 28.2082 49.5518 31.1149 42.8916C35.5491 32.7203 44.0368 14.771 51.0501 8.82459C56.6099 4.11157 66.0966 3.47127 68.2951 3.3873C69.3733 2.30089 73.0464 -0.711665 79.9063 0.154313C87.8339 1.1515 104.545 8.98729 107.69 12.1101C110.427 14.8287 110.591 18.0302 110.549 19.1796C111.643 20.7174 116.014 27.5035 115.66 37.5488C115.66 37.5908 115.654 37.6328 115.649 37.6748L109.899 72.6813C109.899 72.697 109.894 72.7075 109.894 72.7233C109.867 72.844 109.259 75.6571 106.316 78.1711C103.282 80.7428 99.0487 82.0391 93.6844 82.0391ZM77.5228 2.02273C72.0739 2.02273 69.6587 4.88308 69.5477 5.01954C69.3574 5.25046 69.0667 5.39217 68.7655 5.39742C68.6598 5.39742 57.9893 5.6021 52.3713 10.3624C45.6752 16.0463 37.3513 33.686 32.9858 43.6946C27.1406 57.0937 34.8779 62.6727 42.5887 66.8504C50.8757 71.3377 72.6606 77.8089 89.4088 79.7508C105.459 81.6087 107.753 72.907 107.885 72.3192L113.62 37.4071C113.968 26.9367 108.752 20.161 108.699 20.0981C108.53 19.8829 108.456 19.6152 108.493 19.3475C108.509 19.2216 108.842 16.1198 106.242 13.5376C103.335 10.651 87.0887 3.09339 79.6474 2.15918C78.8916 2.06471 78.1834 2.02273 77.5228 2.02273Z" fill="#133B65"/>
<path d="M83.4632 26.6585C79.51 26.6585 75.7523 26.2333 72.5073 25.4041C66.7466 23.9293 62.8357 21.2264 61.1921 17.5841C60.1773 15.3325 60.579 12.6086 62.2121 10.651L67.9622 3.74415C68.3216 3.31378 68.9664 3.2508 69.3997 3.60769C69.8331 3.96458 69.8965 4.60488 69.5371 5.03524L63.787 11.9421C62.6455 13.3171 62.3548 15.2065 63.0577 16.7601C66.1389 23.5934 78.49 25.4828 89.3613 24.3229C91.4911 24.0973 93.5047 23.1683 95.0321 21.7093L100.92 16.104C100.941 16.083 100.967 16.062 100.994 16.041C101.036 16.0095 105.264 12.7923 110.295 18.8437C110.655 19.274 110.591 19.9143 110.158 20.2712C109.724 20.6281 109.08 20.5651 108.72 20.1348C105.185 15.8836 102.611 17.3951 102.283 17.6155L96.4485 23.1735C94.5935 24.937 92.1571 26.0601 89.5833 26.3383C87.5221 26.5482 85.4662 26.6585 83.4632 26.6585Z" fill="#133B65"/>
<path d="M46.8432 16.0779C46.6582 16.0779 46.468 16.0202 46.3094 15.8995C45.9289 15.6108 45.8549 15.0702 46.1456 14.6924C46.3094 14.4772 50.3207 9.4335 61.9901 13.4537C62.4446 13.6112 62.6877 14.1045 62.5292 14.5559C62.3706 15.0073 61.8738 15.2487 61.4193 15.0912C51.0606 11.5223 47.5725 15.7053 47.5355 15.7473C47.3611 15.9625 47.1022 16.0779 46.8432 16.0779Z" fill="#133B65"/>
<g opacity="0.2">
<path d="M41.6322 60.7045C40.0942 60.0957 39.1323 58.5631 39.1535 56.9152C39.1746 55.0625 39.6873 52.4698 42.1712 51.2994C46.2513 49.3733 48.36 52.1654 47.488 55.1465C46.7692 57.5922 44.8719 61.9798 41.6322 60.7045Z" fill="white"/>
</g>
<path d="M84.4515 71.5476C78.8546 71.5476 70.1555 69.8786 61.451 67.0498C49.5227 63.1712 40.3268 58.0488 36.1991 52.9947C35.9138 52.706 34.3335 51.0108 33.3981 48.077C32.4785 45.1904 32.0293 40.4826 35.1051 34.468C35.3218 34.0429 35.8503 33.8697 36.2784 34.0849C36.7065 34.3 36.8809 34.8249 36.6642 35.25C31.3475 45.647 37.2139 51.5461 37.4623 51.7928C37.4887 51.8138 37.5098 51.8453 37.531 51.8715C41.4366 56.6895 50.3525 61.6177 61.9954 65.407C72.0158 68.6663 82.348 70.4087 87.1098 69.6424C95.1589 68.3514 95.5077 66.971 98.8426 53.7872C99.3447 51.798 99.9155 49.5413 100.587 46.9958C102.611 39.3332 101.998 33.0772 98.8214 28.8995C96.4379 25.761 93.399 24.853 93.3673 24.8425C92.9075 24.7061 92.638 24.2285 92.7701 23.7666C92.9022 23.3047 93.3884 23.0423 93.8482 23.1735C93.9909 23.2155 97.3998 24.2127 100.143 27.7606C102.632 30.9831 105.026 37.0082 102.273 47.4314C101.601 49.9716 101.031 52.2179 100.529 54.207C97.1672 67.4854 96.5647 69.8786 87.3794 71.3534C86.5496 71.4794 85.5613 71.5476 84.4515 71.5476Z" fill="#133B65"/>
<path d="M47.9953 21.5624C47.9953 21.5624 51.1558 15.9572 54.274 19.1902C57.3921 22.4232 61.5197 30.0857 74.4363 31.823C87.353 33.5602 90.1646 29.9913 94.0491 33.5602C97.9336 37.129 96.3798 44.5555 94.7309 50.6278C93.0819 56.7001 92.1095 64.3208 84.2454 64.4152C76.3812 64.5097 47.3453 58.3166 39.6767 46.4659C39.6767 46.4659 36.6959 43.4323 41.2834 33.5969C41.2781 33.5969 44.7926 26.3384 47.9953 21.5624Z" fill="#133B65"/>
<g opacity="0.3">
<path d="M94.7309 50.6224C93.0767 56.7 92.1095 64.3153 84.2454 64.4151C76.4922 64.5095 48.1486 58.4897 40.0097 46.959C50.0089 56.9781 75.06 62.1898 82.2793 62.1005C90.1435 62.0061 91.1159 54.3855 92.7648 48.3079C94.1707 43.133 95.5025 36.9872 93.473 33.0719C93.6633 33.2189 93.8535 33.3763 94.0491 33.5547C97.9336 37.1236 96.3798 44.55 94.7309 50.6224Z" fill="#133B65"/>
</g>
<g opacity="0.3">
<path d="M114.634 37.5121L108.884 72.5186C108.884 72.5186 106.765 82.7896 89.2873 80.7638C74.0241 78.9951 55.5423 73.6942 45.765 69.4903C47.7945 70.2985 84.1079 84.5216 96.4749 72.7128C109.196 60.5628 108.609 40.5036 107.447 33.7543C106.284 27.0049 106.96 20.35 111.527 22.9531C111.543 22.9636 111.564 22.9741 111.58 22.9899C113.102 26.1022 114.862 31.1458 114.634 37.5121Z" fill="#133B65"/>
</g>
<path d="M119.623 57.5765C118.92 64.6985 113.234 69.5742 107.204 68.8237C101.179 68.0732 97.2783 62.0743 98.1714 54.9733C99.0646 47.8723 104.302 42.6397 110.332 43.3587C116.822 44.1302 120.39 49.8404 119.623 57.5765Z" fill="#0178BC"/>
<g opacity="0.3">
<path d="M119.623 57.5766C118.92 64.7038 113.234 69.5743 107.204 68.8238C103.626 68.3777 100.798 66.0842 99.276 62.8092C100.661 63.9376 102.336 64.6828 104.218 64.919C110.242 65.6695 115.934 60.7991 116.637 53.6718C116.944 50.528 116.542 47.7202 115.522 45.4424C118.63 47.9039 120.152 52.26 119.623 57.5766Z" fill="#133B65"/>
</g>
<g opacity="0.48">
<path d="M99.7305 51.3467C101.755 48.3499 105.216 49.2736 104.778 52.9842C104.778 52.9842 103.953 55.5874 104.001 58.2378C103.129 61.3711 98.4727 60.9827 98.0551 57.419" fill="white"/>
</g>
<path d="M108.43 69.9155C107.98 69.9155 107.526 69.8892 107.077 69.8315C103.858 69.4326 101.073 67.6534 99.2337 64.8351C97.4315 62.0692 96.6969 58.5265 97.1567 54.8527C98.1397 47.0799 103.974 41.5901 110.449 42.3564C117.361 43.1751 121.452 49.3314 120.633 57.6816C120.247 61.5758 118.392 65.108 115.538 67.3753C113.45 69.0337 110.966 69.9155 108.43 69.9155ZM109.254 44.3088C104.302 44.3088 99.9789 48.8486 99.1862 55.1046C98.7845 58.3061 99.4081 61.3711 100.951 63.7329C102.458 66.0422 104.725 67.496 107.336 67.8214C109.772 68.1258 112.24 67.4015 114.275 65.785C116.701 63.8589 118.281 60.8306 118.614 57.4769C119.333 50.1974 116.035 45.0488 110.221 44.3612C109.894 44.3245 109.571 44.3088 109.254 44.3088Z" fill="#133B65"/>
<path d="M111.479 67.9263C111.194 67.9263 110.908 67.9105 110.623 67.8738C105.866 67.2807 102.88 62.1268 103.668 55.8865C104.461 49.599 108.72 45.1012 113.366 45.647C118.403 46.2401 121.209 51.0528 120.506 57.9072C120.157 61.3133 118.624 64.3259 116.294 66.1681C114.84 67.3122 113.16 67.9263 111.479 67.9263ZM112.594 47.337C109.138 47.337 106.041 51.0476 105.401 56.1017C104.735 61.3606 107.077 65.68 110.84 66.1523C112.346 66.3413 113.857 65.8742 115.205 64.814C117.166 63.2605 118.466 60.6835 118.767 57.734C119.359 51.9083 117.161 47.8408 113.16 47.3737C112.97 47.3475 112.779 47.337 112.594 47.337Z" fill="#133B65"/>
<g opacity="0.2">
<path d="M54.8448 20.5862C54.8448 20.5862 57.4397 17.5474 60.6477 19.5732C62.4552 20.7174 65.0396 22.3234 60.2355 29.986C56.7632 35.523 54.089 41.7055 52.6779 45.689C51.8376 48.0665 49.2638 49.4101 46.8274 48.6963C44.4861 48.014 42.3774 46.4133 43.408 42.7185C45.448 35.4128 54.8448 20.5862 54.8448 20.5862Z" fill="white"/>
</g>
<path d="M84.0551 65.2812C75.5515 65.2812 46.8062 58.9622 38.9738 46.9959C38.4242 46.3609 36.0142 42.813 40.4853 33.2295C40.6333 32.9198 44.058 25.8766 47.2554 21.1058C47.525 20.6334 49.3272 17.6524 51.7953 17.3427C52.5722 17.243 53.7402 17.3795 54.9082 18.5866C55.442 19.1377 55.9969 19.8095 56.5941 20.5232C59.5801 24.1184 64.0883 29.5504 74.5579 30.957C80.4084 31.7442 84.1449 31.4241 86.872 31.1931C90.1223 30.915 92.268 30.7313 94.6516 32.9198C98.7316 36.6672 97.5108 43.7524 95.5817 50.8535C95.4073 51.5043 95.2382 52.1603 95.0638 52.8583C93.6051 58.6368 91.9456 65.192 84.2612 65.2864C84.1872 65.2812 84.1185 65.2812 84.0551 65.2812ZM52.2075 19.0537C52.1441 19.0537 52.0807 19.0589 52.0172 19.0642C50.6009 19.2426 49.158 21.2842 48.7617 21.9875C48.7511 22.0085 48.7405 22.0243 48.7247 22.0453C45.5907 26.7163 42.0973 33.9013 42.0655 33.9748C37.8745 42.9599 40.2898 45.8518 40.3109 45.878C40.3532 45.92 40.3743 45.9515 40.406 45.9987C47.7205 57.2932 76.0377 63.5492 84.0551 63.5492C84.1132 63.5492 84.1767 63.5492 84.2348 63.5492C90.5768 63.4705 91.9298 58.1119 93.362 52.4332C93.5312 51.7614 93.7056 51.0634 93.8905 50.3969C95.5923 44.1408 96.8713 37.3232 93.4625 34.1899C91.6497 32.5262 90.2016 32.6469 87.02 32.9198C84.2136 33.1613 80.3661 33.4867 74.3201 32.6784C63.1739 31.1826 58.4016 25.4304 55.2464 21.6306C54.6492 20.9116 54.1365 20.2923 53.6503 19.7885C53.1694 19.2951 52.6937 19.0537 52.2075 19.0537Z" fill="#133B65"/>
<path d="M44.3593 35.1345C44.7504 35.7538 45.6065 35.8588 46.1509 35.3602C49.2321 32.5576 53.8353 33.1349 54.1419 38.5564C54.1789 39.2177 54.7708 39.7111 55.4314 39.6428L55.7274 39.6113C56.4091 39.5379 56.8636 38.992 56.8266 38.3727C56.3457 30.3375 48.656 28.9992 44.4491 33.7752C44.1214 34.1478 44.0897 34.7094 44.3593 35.1345Z" fill="#3FB1EA"/>
<path d="M75.0811 46.9329L75.208 47.0537C75.673 47.505 76.4235 47.4998 76.8727 47.0327C79.584 44.2405 83.7644 45.222 84.0075 50.1607C84.0392 50.7957 84.5519 51.2996 85.1861 51.2996H85.8573C86.5232 51.2996 87.0623 50.7537 87.0411 50.0924C86.7399 42.1727 79.2193 40.7346 75.0283 45.3007C74.6002 45.7678 74.6266 46.4921 75.0811 46.9329Z" fill="#3FB1EA"/>
<g opacity="0.3">
<path d="M109.513 18.4395C107.848 16.9805 105.597 15.6369 103.467 16.3926C99.387 17.8412 96.1525 24.029 89.467 25.3253C82.7867 26.6112 70.4514 23.7246 70.4514 23.7246L67.5975 22.2131C67.5975 22.2131 82.977 25.6507 90.1646 21.4048C97.3522 17.1642 98.6365 12.9655 101.913 12.7713C105.19 12.5771 104.82 11.2283 104.82 11.2283C104.82 11.2283 104.825 11.2283 104.825 11.2335C105.782 11.8423 106.522 12.3882 106.966 12.829C108.979 14.8286 109.434 17.1379 109.513 18.4395Z" fill="#133B65"/>
</g>
<path d="M74.0452 131.82C74.0452 131.82 60.5473 133.751 45.7651 130.083C32.9277 126.897 31.7809 120.583 31.7016 118.982C31.691 118.741 31.7016 118.604 31.7016 118.604L33.0123 113.498L37.235 111.031C37.235 111.031 59.0833 110.118 67.3385 111.278C67.5447 111.309 67.7402 111.346 67.9305 111.398C75.525 113.377 74.0452 131.82 74.0452 131.82Z" fill="#0178BC"/>
<path d="M65.0343 133.352C59.8074 133.352 52.847 132.885 45.5219 131.069C30.0738 127.238 30.6604 118.872 30.6921 118.52C30.745 117.964 31.2365 117.555 31.802 117.602C32.3622 117.654 32.7692 118.142 32.7269 118.694C32.7057 119.003 32.4151 125.732 46.0187 129.106C58.3804 132.171 69.9705 131.253 73.0887 130.917C73.4058 125.301 72.8984 113.083 67.2064 112.285C59.6118 111.22 40.0044 111.944 37.5415 112.039L33.5355 114.374C33.0493 114.658 32.4256 114.495 32.1402 114.012C31.8549 113.529 32.0187 112.91 32.5049 112.626L36.7277 110.165C36.8703 110.081 37.0342 110.034 37.2033 110.029C38.1018 109.992 59.2419 109.126 67.4918 110.28C76.5926 111.556 75.134 131.074 75.0653 131.904C75.0283 132.376 74.6636 132.759 74.1932 132.827C73.9078 132.864 70.3722 133.352 65.0343 133.352Z" fill="#133B65"/>
<path d="M67.3438 107.037V111.283L55.6903 118.61C53.0108 114.248 50.6061 115.45 48.4076 120.777L47.6307 122.178C47.6307 122.178 46.2777 119.869 44.3064 117.644C42.3034 115.387 39.6608 113.209 37.1452 113.597C35.9666 113.781 35.047 114.154 34.3177 114.621C31.9606 116.132 31.7069 118.615 31.7069 118.615L11.4546 113.109C10.2232 112.773 9.37234 111.666 9.37234 110.401V107.53L8.64301 107.247C8.50031 107.194 8.3629 107.126 8.23077 107.047H8.22549C7.49616 106.633 6.96237 105.93 6.77211 105.1L1.09598 80.7427C0.615047 78.6906 2.48066 76.8537 4.54182 77.347L38.7307 85.545C40.8711 86.0593 42.4725 87.8385 42.742 90.0113L44.058 100.613L67.3438 107.037Z" fill="#B5B8C9"/>
<g opacity="0.6">
<path d="M42.742 90.0113L42.8741 91.0977C42.3086 89.392 40.8923 88.0694 39.0953 87.6391L4.90649 79.4411C3.13072 79.016 1.50293 80.3176 1.39195 81.9971L1.09598 80.7375C0.615047 78.6854 2.48066 76.8484 4.54182 77.3418L38.7307 85.5397C40.8711 86.0593 42.4725 87.8385 42.742 90.0113Z" fill="white"/>
</g>
<g opacity="0.6">
<path d="M67.3438 106.528V108.527L44.4227 102.203L44.169 100.135L67.3438 106.528Z" fill="white"/>
</g>
<path d="M47.636 123.191C47.2713 123.191 46.9383 123.002 46.7534 122.688C45.3211 120.252 40.8394 114.049 37.3037 114.595C33.1286 115.24 32.7269 118.678 32.7216 118.709C32.6899 119.003 32.5313 119.271 32.283 119.444C32.0346 119.612 31.728 119.665 31.4373 119.586L11.1851 114.075C9.52033 113.624 8.35762 112.107 8.35762 110.391V108.207L8.27306 108.176C7.02051 107.688 6.09034 106.617 5.78381 105.316L0.102403 80.9736C-0.204129 79.6668 0.186964 78.318 1.14884 77.3733C2.11071 76.4286 3.46897 76.0507 4.78494 76.3656L38.9738 84.5635C41.5159 85.1723 43.4344 87.3137 43.7567 89.8906L44.9882 99.8152L67.6187 106.061C68.0573 106.181 68.3638 106.58 68.3638 107.037V111.283C68.3638 111.629 68.1842 111.955 67.8882 112.138L56.2347 119.465C56.0022 119.612 55.722 119.659 55.4578 119.596C55.1935 119.533 54.961 119.371 54.8183 119.14C53.9251 117.691 53.0795 116.92 52.4348 116.967C52.012 116.998 50.8704 117.476 49.3483 121.166C49.3325 121.202 49.3166 121.239 49.2955 121.271L48.5186 122.672C48.3389 122.992 48.0059 123.191 47.636 123.197C47.6412 123.191 47.636 123.191 47.636 123.191ZM46.1033 118.174C46.6794 118.898 47.1709 119.591 47.562 120.168C49.0048 116.746 50.511 115.088 52.2762 114.946C53.5816 114.841 54.8025 115.592 55.9916 117.224L66.3238 110.727V107.803L45.2577 101.988L47.1286 117.035C47.1973 117.591 46.8009 118.095 46.2407 118.163C46.1931 118.174 46.1509 118.174 46.1033 118.174ZM3.85477 78.2812C3.37912 78.2812 2.93518 78.4649 2.58108 78.8113C2.12128 79.2679 1.94159 79.8872 2.08957 80.517L7.77098 104.864C7.92425 105.515 8.38933 106.05 9.01825 106.297L9.74758 106.58C10.1387 106.733 10.3976 107.105 10.3976 107.525V110.396C10.3976 111.204 10.942 111.913 11.7295 112.128L30.9617 117.36C31.5748 115.555 33.2977 113.172 36.9972 112.6C39.9674 112.144 42.8953 114.5 45.0674 116.935L43.0538 100.744C43.0538 100.744 43.0538 100.744 43.0538 100.739L41.7326 90.1373C41.5159 88.3896 40.2158 86.941 38.4929 86.5316L4.304 78.3337C4.15602 78.3022 4.00276 78.2812 3.85477 78.2812Z" fill="#133B65"/>
<path d="M34.545 115.492C34.4551 115.492 34.36 115.482 34.2701 115.455L9.09754 108.496C8.55318 108.344 8.23608 107.787 8.38935 107.247C8.54261 106.706 9.10283 106.391 9.64718 106.544L34.8198 113.503C35.3641 113.655 35.6812 114.211 35.528 114.752C35.4011 115.198 34.9942 115.492 34.545 115.492Z" fill="#133B65"/>
<path d="M46.5684 118.368C46.1931 118.368 45.8338 118.163 45.6541 117.807C45.4004 117.308 45.6065 116.699 46.1086 116.447L66.8893 106.129C67.3914 105.877 68.0045 106.082 68.2581 106.58C68.5118 107.079 68.3057 107.688 67.8036 107.94L47.0229 118.258C46.8749 118.331 46.7216 118.368 46.5684 118.368Z" fill="#133B65"/>
<g opacity="0.6">
<path d="M17.4426 92.7667L17.0092 89.7437C17.0039 89.6282 17.0303 89.5127 17.0885 89.413L18.1191 87.7545C18.2036 87.6076 18.378 87.5289 18.5471 87.5603L23.9696 88.6415C24.1017 88.6677 24.218 88.7517 24.2761 88.8777L25.3701 90.7671C25.423 90.8773 25.4547 90.9928 25.46 91.1135L25.8828 94.5564C25.8986 94.8346 25.6449 95.055 25.3701 94.992L17.8971 93.2968C17.6434 93.2391 17.4584 93.0239 17.4426 92.7667Z" fill="white"/>
</g>
<path d="M17.0039 92.1842L16.5705 89.1611C16.5653 89.0457 16.5917 88.9302 16.6498 88.8305L17.6804 87.172C17.765 87.0251 17.9394 86.9463 18.1085 86.9778L23.5309 88.059C23.6631 88.0852 23.7793 88.1692 23.8375 88.2952L24.9315 90.1846C24.9843 90.2948 25.016 90.4102 25.0213 90.531L25.4441 93.9739C25.46 94.252 25.2063 94.4725 24.9315 94.4095L17.4584 92.7143C17.2048 92.6618 17.0198 92.4414 17.0039 92.1842Z" fill="#133B65"/>
<path d="M45.7175 114.652C45.4427 114.652 45.1784 114.495 45.0569 114.232C44.8877 113.87 45.0463 113.44 45.411 113.272L50.2732 111.041L44.7239 108.811C44.3487 108.659 44.169 108.239 44.3222 107.871C44.4755 107.499 44.8983 107.326 45.2683 107.473L52.3713 110.333C52.6409 110.443 52.8206 110.7 52.8259 110.984C52.8311 111.272 52.6673 111.535 52.403 111.655L46.0187 114.584C45.9236 114.631 45.8179 114.652 45.7175 114.652Z" fill="#133B65"/>
<path d="M49.1739 110.391C48.9044 110.391 48.6507 110.244 48.5238 109.992C48.3442 109.635 48.4921 109.199 48.8515 109.021L52.1758 107.373L44.2747 104.828C43.8942 104.707 43.6828 104.297 43.8043 103.914C43.9259 103.536 44.3381 103.326 44.7239 103.447L54.3162 106.533C54.5963 106.622 54.7972 106.874 54.8183 107.168C54.8395 107.462 54.6809 107.74 54.4166 107.872L49.5016 110.307C49.3959 110.365 49.2849 110.391 49.1739 110.391Z" fill="#133B65"/>
<g opacity="0.3">
<path d="M45.7703 117.738L44.3064 117.639C42.3034 115.382 39.6609 113.204 37.1452 113.592C35.9666 113.776 35.047 114.149 34.3177 114.616L14.5887 108.958L8.23607 107.032H8.23079L7.33762 104.911C30.4913 112.784 44.4597 110.16 41.4208 88.1324L42.3985 90.0638L45.7703 117.738Z" fill="#133B65"/>
</g>
<g opacity="0.3">
<path d="M30.0844 113.23C27.3097 114.763 21.6019 114.679 9.37762 110.994L11.5128 112.579L31.1784 117.733L33.0228 114.694" fill="#133B65"/>
</g>
<g opacity="0.3">
<path d="M66.3714 107.52C66.1177 107.646 45.4902 117.723 45.4902 117.723C45.4902 117.723 47.5831 121.549 47.6307 121.407C47.6782 121.26 50.1094 116.395 50.1094 116.395L53.032 116.027L55.9335 118.226L67.1536 111.377" fill="#133B65"/>
</g>
<g opacity="0.2">
<path d="M10.9948 95.1704L8.27833 94.5931C7.80267 94.4934 7.43272 94.1208 7.33759 93.6484L5.61996 84.3536C5.42441 83.3879 6.30701 82.5429 7.26888 82.7791L9.75813 83.3774C10.2814 83.5033 10.683 83.9232 10.7781 84.448L12.2632 93.9528C12.4006 94.6928 11.7347 95.3279 10.9948 95.1704Z" fill="white"/>
</g>
<g opacity="0.2">
<path d="M12.11 103.374L10.0065 102.639C9.55732 102.481 9.21908 102.098 9.12923 101.631L8.60601 99.0595C8.48974 98.4769 9.01296 97.9678 9.59431 98.0938L12.3214 98.6869C12.9556 98.8233 13.4418 99.3271 13.5528 99.9622L13.8963 101.867C14.076 102.88 13.0877 103.72 12.11 103.374Z" fill="white"/>
</g>
<path d="M56.6892 118.394L56.3193 121.512L54.6968 118.82L56.6892 118.394Z" fill="#133B65"/>
<g opacity="0.3">
<path d="M74.0452 131.82C74.0452 131.82 60.5473 133.751 45.7651 130.082C32.9277 126.897 31.7809 120.583 31.7016 118.982C32.3939 117.24 33.4245 116.122 33.4245 116.122C32.7692 118.001 33.5725 120.536 38.0119 124.22C42.4513 127.904 65.029 130.655 69.6217 126.535C74.2091 122.415 68.459 114.474 68.459 114.474L56.0074 120.053L55.2781 118.142L67.9358 111.388C75.5251 113.377 74.0452 131.82 74.0452 131.82Z" fill="#133B65"/>
</g>
<path opacity="0.4" d="M69.0984 123.937C69.2834 125.401 67.0954 126.881 64.2098 127.243C61.3242 127.605 58.8296 126.713 58.6447 125.249C58.4597 123.784 61.4457 121.869 64.3313 121.507C67.2223 121.145 68.9135 122.472 69.0984 123.937Z" fill="url(#paint0_linear_228_509)"/>
<g opacity="0.3">
<path d="M73.6066 118.405L76.6666 116.61L72.2959 114.175L72.6394 115.476" fill="#133B65"/>
</g>
<g opacity="0.3">
<path d="M78.6062 116.941C78.6062 116.941 80.6991 122.367 74.4839 123.769V126.855C78.5428 126.577 81.8724 124.808 84.0498 120.683" fill="#133B65"/>
</g>
<path d="M92.9181 87.7546C86.2801 87.7546 76.3654 86.3113 66.0226 83.7449C58.6975 81.9237 40.8764 76.901 33.5619 69.5113C33.2237 69.1702 33.229 68.6191 33.5725 68.2832C33.916 67.9473 34.471 67.9526 34.8092 68.2937C39.6661 73.2009 51.494 78.3443 66.4454 82.0601C79.6844 85.3456 92.601 86.8047 97.8543 85.5975C98.3247 85.4873 98.7951 85.7812 98.9008 86.2483C99.0117 86.7154 98.7158 87.1825 98.2454 87.2875C96.8766 87.6024 95.0691 87.7546 92.9181 87.7546Z" fill="#133B65"/>
<path d="M69.1883 111.913L87.8339 121.858C87.8339 121.858 95.2118 112.611 96.9611 100.13C98.7105 87.6496 89.7735 85.8179 83.8542 86.5894C77.9297 87.361 74.1457 96.2307 73.4639 99.2222C72.7821 102.214 69.1883 111.913 69.1883 111.913Z" fill="white"/>
<g opacity="0.3">
<path d="M96.9611 100.135C95.2118 112.616 87.8339 121.864 87.8339 121.864L85.3605 120.546C86.1638 119.497 92.7648 110.637 94.4032 98.923C95.2911 92.5778 93.4149 88.9827 90.5768 87.088C94.715 88.4001 98.0974 92.0162 96.9611 100.135Z" fill="#133B65"/>
</g>
<g opacity="0.6">
<path d="M94.6304 89.5547C91.8822 87.6706 88.1985 87.4134 85.2654 87.7965C79.3408 88.568 75.5515 97.443 74.875 100.429C74.2778 103.064 71.408 110.916 70.7368 112.737L69.1883 111.913C69.1883 111.913 72.7821 102.214 73.4639 99.2222C74.1404 96.2359 77.9297 87.3609 83.8542 86.5894C87.3318 86.138 91.8505 86.5842 94.6304 89.5547Z" fill="white"/>
</g>
<path d="M87.8339 122.877C87.6701 122.877 87.5062 122.84 87.353 122.756L68.7074 112.81C68.2582 112.569 68.0573 112.044 68.2317 111.566C68.2687 111.472 71.815 101.894 72.4703 99.007C73.0253 96.5665 76.7723 86.5002 83.7222 85.5922C85.9524 85.3036 91.5334 85.0202 95.1695 88.652C97.7486 91.2342 98.6946 95.1442 97.9759 100.277C96.2107 112.884 88.9438 122.11 88.6372 122.493C88.4364 122.74 88.1352 122.877 87.8339 122.877ZM70.4462 111.435L87.5379 120.551C89.208 118.226 94.53 110.155 95.9517 99.9885C96.5753 95.5169 95.8249 92.1789 93.7161 90.0691C90.7248 87.0775 85.9154 87.3399 83.9864 87.5919C78.6802 88.2846 75.097 96.64 74.4575 99.4426C73.8814 101.983 71.3393 109.01 70.4462 111.435Z" fill="#133B65"/>
<path d="M75.932 115.513L80.8418 102.938C80.8418 102.938 83.2465 96.3093 88.0506 97.3957C92.8547 98.4821 90.2333 105.064 88.4153 109.184C86.5972 113.303 83.1831 119.386 83.1831 119.386L75.932 115.513Z" fill="#EBEDFF"/>
<g opacity="0.3">
<path d="M90.7142 100.172C90.3971 99.9936 90.0272 99.8519 89.6044 99.7575C84.8003 98.6711 82.3956 105.305 82.3956 105.305L77.9826 116.61L75.9373 115.518L80.8471 102.938C80.8471 102.938 83.2518 96.3093 88.0559 97.3957C89.7206 97.7683 90.4923 98.8075 90.7142 100.172Z" fill="#133B65"/>
</g>
<path d="M83.183 120.252C83.0456 120.252 82.9029 120.221 82.7708 120.147L75.5198 116.279C75.1287 116.069 74.9595 115.608 75.1181 115.203L80.0279 102.628C80.1283 102.35 82.7497 95.3121 88.2461 96.5507C89.6149 96.8604 90.5874 97.5689 91.1423 98.6658C92.49 101.327 91.0155 105.462 89.2133 109.535C87.3952 113.65 83.9811 119.748 83.9441 119.811C83.7908 120.09 83.4896 120.252 83.183 120.252ZM77.026 115.114L82.8342 118.216C83.7961 116.468 86.2061 112.028 87.6119 108.837C88.5473 106.717 90.7459 101.741 89.5779 99.4478C89.2661 98.8285 88.7006 98.4349 87.855 98.2459C83.8648 97.3485 81.6821 103.179 81.661 103.237L77.026 115.114Z" fill="#133B65"/>
<path d="M71.9524 105.011C71.8625 105.011 71.7674 104.995 71.6723 104.964L61.5303 101.584C61.1762 101.463 60.9331 101.133 60.9331 100.76V93.596C40.4536 87.3872 40.2739 87.2507 40.1101 87.1248C39.7295 86.8309 39.6556 86.285 39.9515 85.9072C40.2105 85.5765 40.6597 85.4768 41.0244 85.6552C41.8964 85.9859 54.0414 89.6912 62.0588 92.1212C62.4287 92.2314 62.6771 92.5673 62.6771 92.9504V100.141L72.2219 103.321C72.6817 103.473 72.9248 103.967 72.7715 104.418C72.6553 104.78 72.317 105.011 71.9524 105.011Z" fill="#133B65"/>
<path d="M60.5367 144.405C55.6586 144.405 51.3461 143.959 47.9055 143.419C39.8511 142.154 34.8092 140.154 34.6031 140.07C34.1539 139.892 33.9372 139.383 34.1222 138.942C34.3018 138.496 34.8145 138.28 35.2584 138.459C35.4593 138.538 55.5529 146.405 78.8229 140.406C79.288 140.285 79.7689 140.563 79.8905 141.031C80.0121 141.492 79.7319 141.97 79.2669 142.091C72.576 143.812 66.1759 144.405 60.5367 144.405Z" fill="#133B65"/>
<g opacity="0.3">
<path d="M80.8999 135.73C80.271 137.876 78.4688 143.644 76.6719 145.896C74.9173 148.09 59.3423 150.404 46.5684 147.89C66.6198 150.22 65.4095 137.226 65.4095 137.226L80.8999 135.73Z" fill="#133B65"/>
</g>
<path d="M32.7745 74.8488C32.7005 74.8488 32.6265 74.8383 32.5525 74.8174L19.953 71.5214C19.4879 71.4007 19.2078 70.9231 19.3294 70.4612C19.4509 69.9994 19.9318 69.7212 20.3969 69.8419L32.9964 73.1379C33.4615 73.2586 33.7416 73.7362 33.6201 74.198C33.5144 74.5864 33.1603 74.8488 32.7745 74.8488Z" fill="#133B65"/>
<g opacity="0.3">
<path d="M33.3611 71.8625C31.543 79.3782 25.3384 81.2151 13.8963 76.2764L12.2844 79.0371L30.4173 83.5559L31.3951 79.1" fill="#133B65"/>
</g>
<path d="M20.3071 42.3143C20.1591 42.3143 20.0058 42.2829 19.8579 42.2094C19.3505 41.9627 19.1444 41.3591 19.3928 40.8553L23.0236 33.4919C23.1769 33.1245 23.5415 32.8726 23.9643 32.8726H23.9696C24.3237 32.8726 24.6461 33.051 24.8364 33.3502C25.0213 33.6441 25.0425 34.0167 24.8892 34.3316L21.2267 41.7475C21.047 42.1044 20.6823 42.3143 20.3071 42.3143Z" fill="#133B65"/>
<path d="M20.5713 41.9941L17.6276 41.7265L20.0481 40.0417L20.5713 41.9941Z" fill="#133B65"/>
<path d="M31.2206 62.2371C30.7397 62.2371 30.2535 62.1111 29.8148 61.854L20.8303 56.5794C19.5883 55.8498 19.1126 54.2753 19.7416 52.9842L33.3188 25.1732C33.9477 23.8874 35.4751 23.3153 36.8069 23.8664L40.5487 25.4251C40.9927 25.6088 41.2041 26.1179 41.0138 26.5588C40.8288 26.9997 40.3162 27.2096 39.8722 27.0206L36.1304 25.4671C35.6601 25.2729 35.1157 25.4724 34.8937 25.929L21.3165 53.7453C21.084 54.2281 21.2584 54.8159 21.7234 55.0888L30.708 60.3634C31.0938 60.5891 31.5747 60.5419 31.9024 60.2375L32.1825 59.9803C32.5366 59.6549 33.0915 59.6759 33.4192 60.0275C33.7469 60.3792 33.7257 60.9303 33.3717 61.2556L33.0915 61.5128C32.563 61.9904 31.8971 62.2371 31.2206 62.2371Z" fill="#133B65"/>
<path d="M22.1357 43.6684C22.0247 43.6684 21.9137 43.6422 21.808 43.5897C21.4486 43.4113 21.3059 42.9757 21.4856 42.6188L31.4268 23.0109C33.3875 19.2216 36.5691 19.6677 36.7012 19.6887C37.0976 19.7517 37.3724 20.1191 37.309 20.5127C37.2456 20.9063 36.8756 21.174 36.4845 21.1163C36.3841 21.1005 34.1856 20.8433 32.7269 23.6617L22.791 43.2643C22.6589 43.5215 22.3999 43.6684 22.1357 43.6684Z" fill="#133B65"/>
<path d="M17.7914 58.9674C17.6751 58.9674 17.5588 58.9412 17.4479 58.8835C15.0907 57.6396 15.3338 55.4248 15.7989 54.4224L17.5166 50.6488C17.6804 50.2867 18.1138 50.124 18.4784 50.2866C18.8431 50.4493 19.0069 50.8797 18.8431 51.2419L17.1255 55.0207C17.0039 55.2988 16.4754 56.7264 18.1349 57.6029C18.489 57.7918 18.6264 58.2274 18.4362 58.579C18.304 58.8257 18.0556 58.9674 17.7914 58.9674Z" fill="#133B65"/>
<g opacity="0.3">
<path d="M18.9699 58.8624C22.6536 64.4782 20.027 68.5771 11.0847 71.1646H13.9545C13.9545 71.1646 12.5645 72.5606 13.7113 76.5179C13.7113 76.5179 21.0417 68.6821 25.7771 66.5145L25.4388 62.2843" fill="#133B65"/>
</g>
<g opacity="0.3">
<path d="M28.89 53.614C28.89 53.614 29.8941 62.5677 17.2048 57.1724L17.6276 58.6262L29.4132 64.3731L32.0768 64.4151L34.1856 62.4627L30.8084 56.8942" fill="#133B65"/>
</g>
<path fill-rule="evenodd" clip-rule="evenodd" d="M87.3177 8.98028L78.0608 5.86282C77.6791 5.77178 76.8096 5.83873 76.3842 6.83483L73.1533 16.4284C73.0247 16.8473 72.9942 17.769 73.9007 18.1043L83.1576 21.2217L78.9601 12.8745L87.3177 8.98028ZM77.4528 6.33269C77.5279 6.1096 77.7696 5.98966 77.9927 6.06479L79.7431 6.65427C79.9662 6.7294 80.0862 6.97115 80.011 7.19424C79.9359 7.41733 79.6942 7.53728 79.4711 7.46215L77.7207 6.87266C77.4976 6.79753 77.3776 6.55578 77.4528 6.33269ZM80.9536 7.51166C80.8784 7.73475 80.6367 7.85469 80.4136 7.77956C80.1905 7.70443 80.0706 7.46268 80.1457 7.23959C80.2208 7.0165 80.4626 6.89655 80.6857 6.97168C80.9087 7.04681 81.0287 7.28857 80.9536 7.51166Z" fill="#1FB7C7"/>
<path d="M73.6476 16.4074C74.2334 15.2019 77.4118 13.5399 78.9601 12.8745L83.116 21.2827L74.0463 18.2283C73.5078 18.0469 73.0372 17.6636 73.6476 16.4074Z" fill="#0178BC"/>
<path d="M73.3759 17.103C73.6598 15.3696 77.217 13.5618 78.9601 12.8745L79.6299 14.2244C74.954 15.2883 73.4973 16.5942 73.3759 17.103Z" fill="#055F93"/>
<path d="M78.9151 12.8968L86.2742 8.62889L87.3177 8.98032L78.9151 12.8968Z" fill="#5BC7E3"/>
<defs>
<linearGradient id="paint0_linear_228_509" x1="61.0527" y1="119.525" x2="64.4394" y2="125.62" gradientUnits="userSpaceOnUse">
<stop stop-color="white"/>
<stop offset="1" stop-color="#F1F2F2"/>
</linearGradient>
</defs>
</svg>
